<svg width="32" height="32" viewBox="0 0 32 32" fill="none" xmlns="http://www.w3.org/2000/svg">
<g clip-path="url(#clip0_87_148)">
<path d="M10.2856 19.4285V25.1428M15.9999 19.4285V25.1428M21.7142 19.4285V25.1428M28.2513 13.7142H3.74848C3.42159 13.7114 3.09791 13.7788 2.79928 13.9118C2.50065 14.0447 2.23401 14.2402 2.01737 14.485C1.80073 14.7299 1.63912 15.0183 1.54344 15.3309C1.44777 15.6435 1.42026 15.9729 1.46277 16.2971L3.13134 28.8685C3.20387 29.4218 3.47635 29.9295 3.8974 30.2959C4.31845 30.6622 4.85898 30.8618 5.41705 30.8571H26.5371C27.0951 30.8618 27.6357 30.6622 28.0567 30.2959C28.4778 29.9295 28.7502 29.4218 28.8228 28.8685L30.4913 16.2971C30.5334 15.9767 30.507 15.6512 30.414 15.3418C30.321 15.0324 30.1635 14.7462 29.9518 14.5022C29.7402 14.2581 29.4792 14.0617 29.1861 13.9259C28.8929 13.7901 28.5744 13.7179 28.2513 13.7142Z" stroke="#E3FFF4" stroke-linecap="round" stroke-linejoin="round"/>
<path d="M21.6684 3.52002C23.0376 3.75656 24.2921 4.43382 25.2411 5.44879C26.19 6.46375 26.7815 7.76088 26.9256 9.14288L27.4284 13.7143M4.57129 13.7143L5.07415 9.14288C5.22757 7.76908 5.82323 6.48232 6.77141 5.47643C7.71959 4.47054 8.96894 3.79997 10.3313 3.56573" stroke="#E3FFF4" stroke-linecap="round" stroke-linejoin="round"/>
<path d="M21.7142 3.99997C21.7142 4.37517 21.6403 4.7467 21.4967 5.09335C21.3531 5.43999 21.1427 5.75496 20.8774 6.02027C20.6121 6.28558 20.2971 6.49604 19.9505 6.63962C19.6038 6.78321 19.2323 6.85711 18.8571 6.85711H13.1428C12.385 6.85711 11.6583 6.55609 11.1225 6.02027C10.5867 5.48445 10.2856 4.75773 10.2856 3.99997C10.2856 3.2422 10.5867 2.51548 11.1225 1.97966C11.6583 1.44384 12.385 1.14282 13.1428 1.14282H18.8571C19.6148 1.14282 20.3416 1.44384 20.8774 1.97966C21.4132 2.51548 21.7142 3.2422 21.7142 3.99997Z" stroke="#E3FFF4" stroke-linecap="round" stroke-linejoin="round"/>
</g>
<defs>
<clipPath id="clip0_87_148">
<rect width="32" height="32" fill="white"/>
</clipPath>
</defs>
</svg>
