<svg width="19" height="19" viewBox="0 0 19 19" fill="none" xmlns="http://www.w3.org/2000/svg">
<g clip-path="url(#clip0_217_1302)">
<path d="M9.5 1.78125C11.5471 1.78125 13.5104 2.59447 14.958 4.04202C16.4055 5.48957 17.2188 7.45286 17.2188 9.5C17.2188 11.5471 16.4055 13.5104 14.958 14.958C13.5104 16.4055 11.5471 17.2188 9.5 17.2188C7.45286 17.2188 5.48957 16.4055 4.04202 14.958C2.59447 13.5104 1.78125 11.5471 1.78125 9.5C1.78125 7.45286 2.59447 5.48957 4.04202 4.04202C5.48957 2.59447 7.45286 1.78125 9.5 1.78125ZM9.5 19C12.0196 19 14.4359 17.9991 16.2175 16.2175C17.9991 14.4359 19 12.0196 19 9.5C19 6.98044 17.9991 4.56408 16.2175 2.78249C14.4359 1.00089 12.0196 0 9.5 0C6.98044 0 4.56408 1.00089 2.78249 2.78249C1.00089 4.56408 0 6.98044 0 9.5C0 12.0196 1.00089 14.4359 2.78249 16.2175C4.56408 17.9991 6.98044 19 9.5 19ZM7.39961 11.6004C6.2418 10.4426 6.2418 8.56113 7.39961 7.40332C8.55742 6.24551 10.4389 6.24551 11.5967 7.40332C11.9455 7.75215 12.5096 7.75215 12.8547 7.40332C13.1998 7.05449 13.2035 6.49043 12.8547 6.14531C10.9992 4.28984 7.99336 4.28984 6.13789 6.14531C4.28242 8.00078 4.28242 11.0066 6.13789 12.8621C7.99336 14.7176 10.9992 14.7176 12.8547 12.8621C13.2035 12.5133 13.2035 11.9492 12.8547 11.6041C12.5059 11.259 11.9418 11.2553 11.5967 11.6041C10.4389 12.7619 8.55742 12.7619 7.39961 11.6041V11.6004Z" fill="#E3FFF4"/>
</g>
<defs>
<clipPath id="clip0_217_1302">
<rect width="19" height="19" fill="white"/>
</clipPath>
</defs>
</svg>
