<svg width="24" height="24" viewBox="0 0 24 24" fill="none" xmlns="http://www.w3.org/2000/svg">
<path d="M21 13.766L20.253 13.83C20.2702 14.0221 20.3608 14.2002 20.5058 14.3273C20.6509 14.4543 20.8394 14.5206 21.032 14.5124C21.2247 14.5042 21.4068 14.422 21.5405 14.283C21.6742 14.144 21.7492 13.9589 21.75 13.766L21 13.766ZM3.764 11.943L4.47 7.86304L2.991 7.60704L2.286 11.687L3.764 11.943ZM10.755 2.75004L15.404 2.75003L15.404 1.25003L10.755 1.25004L10.755 2.75004ZM16.315 3.58703L17.127 12.98L18.622 12.851L17.809 3.45803L16.315 3.58703ZM4.47 7.86304C4.977 4.93304 7.619 2.75004 10.755 2.75004L10.755 1.25004C6.929 1.25004 3.629 3.91904 2.991 7.60704L4.47 7.86304ZM10.745 18.9L11.408 14.855L9.928 14.613L9.265 18.657L10.745 18.9ZM16.812 13.754L15.373 14.994L16.353 16.13L17.79 14.89L16.812 13.754ZM12.756 19.028L12.28 20.862L13.732 21.238L14.208 19.405L12.756 19.028ZM11.562 21.222L11.417 21.175L10.958 22.603L11.103 22.65L11.562 21.222ZM13.477 17.184C13.1648 17.7681 12.9228 18.3871 12.756 19.028L14.208 19.405C14.3458 18.8787 14.5445 18.3703 14.8 17.89L13.477 17.184ZM11.417 21.175C11.2745 21.1314 11.1453 21.0527 11.0412 20.9461C10.937 20.8395 10.8613 20.7085 10.821 20.565L9.369 20.941C9.4719 21.3297 9.67161 21.686 9.94947 21.9767C10.2273 22.2673 10.5743 22.4828 10.958 22.603L11.417 21.175ZM12.28 20.862C12.2598 20.9339 12.2243 21.0006 12.176 21.0575C12.1276 21.1145 12.0676 21.1604 12 21.192L12.651 22.543C13.183 22.287 13.583 21.813 13.732 21.238L12.28 20.862ZM12 21.192C11.863 21.257 11.7065 21.2677 11.562 21.222L11.103 22.65C11.6137 22.8133 12.1676 22.775 12.651 22.543L12 21.192ZM9.846 13.016L4.666 13.016L4.666 14.516L9.846 14.516L9.846 13.016ZM19.281 2.59403L20.253 13.83L21.747 13.701L20.777 2.46503L19.281 2.59403ZM20.25 2.48703L20.25 13.766L21.75 13.766L21.75 2.48703L20.25 2.48703ZM20.777 2.46503C20.78 2.50138 20.7745 2.53796 20.7627 2.57245C20.7508 2.60694 20.7319 2.63859 20.7072 2.6654C20.6825 2.6922 20.6524 2.71356 20.619 2.72813C20.5856 2.7427 20.5495 2.75016 20.513 2.75003L20.513 1.25003C19.787 1.25003 19.219 1.87203 19.281 2.59403L20.777 2.46503ZM9.265 18.657C9.13929 19.4172 9.17473 20.1954 9.369 20.941L10.821 20.564C10.6792 20.0208 10.6533 19.4539 10.745 18.9L9.265 18.657ZM15.404 2.75003C15.633 2.75043 15.8535 2.83658 16.0221 2.99151C16.1908 3.14643 16.2952 3.3589 16.315 3.58703L17.809 3.45803C17.757 2.85587 17.4811 2.29509 17.0359 1.88633C16.5907 1.47757 16.0084 1.25054 15.404 1.25003L15.404 2.75003ZM15.373 14.994C14.693 15.58 13.961 16.277 13.476 17.184L14.8 17.89C15.146 17.241 15.697 16.694 16.353 16.13L15.373 14.994ZM2.286 11.687C2.22579 12.034 2.24218 12.39 2.33403 12.73C2.42587 13.0701 2.59093 13.3859 2.81767 13.6554C3.0444 13.9249 3.32732 14.1416 3.6466 14.2902C3.96588 14.4389 4.3138 14.516 4.666 14.516L4.666 13.016C4.099 13.016 3.666 12.504 3.764 11.943L2.286 11.687ZM20.513 2.75003C20.367 2.75003 20.25 2.63203 20.25 2.48703L21.75 2.48703C21.75 1.80503 21.197 1.25003 20.513 1.25003L20.513 2.75003ZM11.408 14.855C11.4453 14.6285 11.4328 14.3965 11.3715 14.1752C11.3101 13.9539 11.2014 13.7486 11.0528 13.5736C10.9042 13.3985 10.7193 13.2579 10.5109 13.1614C10.3025 13.065 10.0756 13.016 9.846 13.016L9.846 14.516C9.8582 14.516 9.87026 14.5176 9.88133 14.5228C9.8924 14.5279 9.90219 14.5354 9.91002 14.5448C9.91785 14.5541 9.92352 14.5651 9.92663 14.5769C9.92974 14.5887 9.9302 14.601 9.928 14.613L11.408 14.855ZM17.127 12.98C17.1392 13.1248 17.1179 13.2705 17.063 13.405C17.0081 13.5395 16.9221 13.6591 16.812 13.754L17.792 14.891C18.0819 14.6409 18.3082 14.3256 18.4525 13.9709C18.5968 13.6163 18.6549 13.2325 18.622 12.851L17.127 12.98Z" fill="#E3FFF4"/>
</svg>
