<?xml version="1.0" encoding="UTF-8"?>
<svg id="Calque_2" data-name="Calque 2" xmlns="http://www.w3.org/2000/svg" viewBox="0 0 258.53 184.78">
  <defs>
    <style>
      .cls-1 {
        fill: #fff;
      }
    </style>
  </defs>
  <g id="Calque_4" data-name="Calque 4">
    <g>
      <path class="cls-1" d="m122,44s-15,0-14-44c0,24-6.39,44.04-14,44,9.39-.04,13,7,14,13,0,0,0-12,14-13Z"/>
      <path class="cls-1" d="m108,94s2,22-32,19c33,2,32.02,71.78,32.02,71.78,0,0-1.02-68.78,31.98-71.78-11-1-31,1-32-19Z"/>
      <path class="cls-1" d="m98.71,54.64c-1.04-1.32-4.57-5.99-5.6-10.15-.09-.38-.38-.66-.77-.73-2.56-.49-11.2.06-13.33.21-.32.02-.61.14-.85.35-1.8,1.57-9.76,8.73-14.17,16.68-5,9-16,24-64,31,27-.87,55.13-.98,61.94-1,.08,0,.08.12,0,.12-4.15.39-15.32,1.81-16.95,5.87-2,5-10,25-7,30s9,4,9,4c0,0,11,1,22-15-3,0-4-1-2-10s10-22,10-22c0,0,15.34-24.93,21.61-28.78.2-.12.24-.4.09-.58Z"/>
      <path class="cls-1" d="m118.94,54.86c1.04-1.32,4.54-6.02,5.55-10.17.09-.38.38-.66.76-.74,2.55-.5,11.2.01,13.33.15.32.02.61.14.85.35,1.81,1.56,9.79,8.69,14.25,16.62,5.04,8.98,16.11,23.93,64.14,30.71-27-.75-55.13-.74-61.95-.72-.08,0-.08.12,0,.12,4.15.37,15.33,1.75,16.97,5.8,2.02,4.99,10.11,24.95,7.13,29.97s-8.98,4.04-8.98,4.04c0,0-11,1.05-22.07-14.9,3-.01,4-1.02,1.96-10.01s-10.1-21.95-10.1-21.95c0,0-15.45-24.86-21.74-28.69-.2-.12-.24-.4-.1-.58Z"/>
      <path class="cls-1" d="m110,59.81v30.19s-15.64-1.96-34.36,19.27c-.48.55-1.18.9-1.91.89-1.45-.02-2.37-.78-2.94-1.55s-.84-1.73-.89-2.7c-.07-1.59.05-4.75,1.61-8.21.86-1.92,2.42-3.43,4.4-4.16,4.41-1.61,10.94-2.33,12.66-2.5.04,0,.03-.06,0-.06l-16.56-.97,3-6s4,1,12-10c6.94-9.54,13.87-14.56,15.59-15.73.25-.17.56-.21.84-.1,1.12.42,4.16,1.49,6.56,1.64Z"/>
      <path class="cls-1" d="m109.12,59.81l-1.49,30.15s15.72-1.18,33.37,20.94c.46.57,1.14.96,1.87.99,1.44.05,2.41-.66,3.01-1.4s.93-1.69,1.02-2.65c.15-1.59.18-4.74-1.2-8.28-.77-1.96-2.25-3.55-4.19-4.37-4.32-1.83-10.82-2.87-12.53-3.12-.04,0-.03-.06.01-.06l16.59-.15-2.7-6.14s-4.04.8-11.49-10.58c-6.46-9.87-13.13-15.23-14.8-16.48-.24-.18-.55-.23-.84-.14-1.14.36-4.23,1.28-6.64,1.31Z"/>
      <path class="cls-1" d="m217.81,91.78s31.19,1.22,39.19-14.78c9.57-19.14-29-42-29-42,0,0-36-25-78-30-26-4-32,0-32,0,0,0,18-3,50,7s66,30,69,54-28.9,22-34,22c-9,0-28-7.83-28-7.83l12,8.83,30.81,2.78Z"/>
    </g>
  </g>
</svg>