<svg width="25" height="25" viewBox="0 0 25 25" fill="none" xmlns="http://www.w3.org/2000/svg">
<path fill-rule="evenodd" clip-rule="evenodd" d="M5.20833 3.125C4.6558 3.125 4.12589 3.34449 3.73519 3.73519C3.34449 4.12589 3.125 4.6558 3.125 5.20833V10.4167H21.875V5.20833C21.875 4.6558 21.6555 4.12589 21.2648 3.73519C20.8741 3.34449 20.3442 3.125 19.7917 3.125H5.20833ZM3.125 14.5833V12.5H21.875V14.5833C21.875 15.1359 21.6555 15.6658 21.2648 16.0565C20.8741 16.4472 20.3442 16.6667 19.7917 16.6667H13.5417V19.7917H15.625C15.9013 19.7917 16.1662 19.9014 16.3616 20.0968C16.5569 20.2921 16.6667 20.5571 16.6667 20.8333C16.6667 21.1096 16.5569 21.3746 16.3616 21.5699C16.1662 21.7653 15.9013 21.875 15.625 21.875H9.375C9.09873 21.875 8.83378 21.7653 8.63843 21.5699C8.44308 21.3746 8.33333 21.1096 8.33333 20.8333C8.33333 20.5571 8.44308 20.2921 8.63843 20.0968C8.83378 19.9014 9.09873 19.7917 9.375 19.7917H11.4583V16.6667H5.20833C4.6558 16.6667 4.12589 16.4472 3.73519 16.0565C3.34449 15.6658 3.125 15.1359 3.125 14.5833Z" fill="#E3FFF4"/>
</svg>
