<svg width="25" height="20" viewBox="0 0 25 20" fill="none" xmlns="http://www.w3.org/2000/svg">
<g clip-path="url(#clip0_6_3237)">
<path d="M15.037 4.2309C15.0877 4.58556 15.1042 4.94454 15.0862 5.30256L15.087 5.29006C15.087 7.2434 15.0814 9.19673 15.0919 11.1501C15.6201 11.4334 16.2427 11.6076 16.9024 11.6251H16.908L16.9677 11.6259C17.3729 11.6273 17.7719 11.5236 18.1282 11.3242L18.1153 11.3309C18.4939 11.114 18.8115 10.7993 19.037 10.4176L19.0435 10.4059C19.2906 9.97546 19.459 9.50175 19.5403 9.0084L19.5435 8.98423C19.6372 8.40289 19.6664 7.81241 19.6306 7.22423L19.6314 7.2459C19.6221 6.33491 19.4321 5.43558 19.0733 4.6034L19.0895 4.6459C18.8834 4.19822 18.6031 3.79125 18.2612 3.4434L18.2604 3.44256C17.9458 3.12158 17.5943 2.84171 17.2137 2.60923L17.1887 2.59506C16.3463 2.10313 15.453 1.71066 14.5258 1.42506L14.4322 1.40006C13.8268 1.20006 13.2188 1.0084 12.608 0.825063C11.5411 0.512563 10.4693 0.212563 9.37817 0.00256348V18.6634L13.4629 20.0026C13.4661 14.7726 13.4661 9.54284 13.4629 4.3134L13.462 4.2634C13.462 3.9634 13.5524 3.6859 13.7072 3.45756L13.704 3.46173C13.76 3.38715 13.8347 3.32986 13.92 3.29607C14.0053 3.26228 14.0979 3.25328 14.1879 3.27006L14.1846 3.26923C14.3733 3.30506 14.5395 3.3884 14.6758 3.50756L14.6741 3.5059C14.8637 3.69256 14.9943 3.94173 15.0338 4.2209L15.0346 4.22756L15.037 4.2309ZM4.37092 15.2909C5.77253 14.7734 7.17333 14.2501 8.57737 13.7359C8.58523 13.6369 8.58739 13.5376 8.58382 13.4384V11.2809C6.80801 11.9284 5.03543 12.5834 3.25962 13.2326C2.82656 13.3959 2.38704 13.5409 1.96285 13.7276C1.45508 13.9365 0.969905 14.1999 0.51527 14.5134L0.543496 14.4951C0.349517 14.6226 0.191296 14.8004 0.0846252 15.0109L0.0813994 15.0184C0.0316284 15.1294 0.00384739 15.2495 -0.000307615 15.3717C-0.00446262 15.4939 0.0150924 15.6158 0.0572058 15.7301L0.0547865 15.7242C0.166883 15.9926 0.34027 16.2151 0.558012 16.3784L0.562045 16.3817C0.941077 16.6634 1.38462 16.8826 1.86285 17.0117L1.89108 17.0184C3.13946 17.4601 4.57817 17.7142 6.07414 17.7142C6.16823 17.7142 6.26258 17.7131 6.35721 17.7109H6.3435C7.12219 17.6924 7.89802 17.6065 8.66285 17.4542L8.57575 17.4684C8.58704 17.3467 8.58059 17.2242 8.58221 17.1026V15.2742C7.98221 15.4965 7.38274 15.7203 6.78382 15.9459C6.56539 16.0384 6.33952 16.1109 6.10882 16.1626L6.07898 16.1684C5.72063 16.2456 5.35552 16.2844 4.98946 16.2842H4.96285C4.63381 16.2845 4.30711 16.2271 3.99672 16.1142L4.01688 16.1209C3.89869 16.0822 3.79938 15.9981 3.73946 15.8859L3.73785 15.8834C3.72499 15.8327 3.72643 15.7792 3.74201 15.7293C3.75758 15.6794 3.78664 15.6351 3.82575 15.6017C3.97737 15.4642 4.15963 15.3567 4.35882 15.2917L4.3693 15.2884L4.37092 15.2909ZM24.6806 13.8909C24.3208 13.5829 23.9079 13.348 23.4637 13.1984L23.437 13.1909C23.1879 13.1092 22.9459 13.0076 22.6967 12.9292C21.5419 12.5551 20.2137 12.3392 18.837 12.3392H18.7491H18.754C18.3491 12.3542 17.9443 12.3659 17.5419 12.4142C16.3161 12.5517 15.1967 12.8176 14.1322 13.2026L14.2387 13.1692V15.7026C15.7137 15.1692 17.1854 14.6301 18.6596 14.0959C19.1399 13.9349 19.6418 13.8539 20.1467 13.8559H20.1887H20.1862L20.2346 13.8551C20.5669 13.8551 20.8862 13.9142 21.183 14.0226L21.1629 14.0159C21.2799 14.0536 21.3788 14.1358 21.4395 14.2459L21.4411 14.2484C21.4544 14.3132 21.4477 14.3807 21.422 14.4414C21.3962 14.5021 21.3527 14.5529 21.2975 14.5867L21.2959 14.5876C21.0505 14.7557 20.7811 14.883 20.4975 14.9651L20.4774 14.9701C18.4075 15.7334 16.3379 16.4959 14.2685 17.2576C14.2249 17.2659 14.2419 17.3209 14.2379 17.3526V19.7142C16.9583 18.7037 19.679 17.694 22.3999 16.6851C22.9362 16.5034 23.3758 16.3209 23.8016 16.1142L23.7274 16.1467C24.1376 15.953 24.5092 15.682 24.8233 15.3476L24.8241 15.3467C24.9838 15.1726 25.0822 14.9367 25.0822 14.6767V14.6667C25.0695 14.5164 25.0274 14.3711 24.9585 14.2381C24.8896 14.105 24.7954 13.9878 24.6814 13.8934L24.679 13.8917L24.6806 13.8909Z" fill="#E3FFF4"/>
</g>
<defs>
<clipPath id="clip0_6_3237">
<rect width="25" height="20" fill="white"/>
</clipPath>
</defs>
</svg>
