<svg width="66" height="58" viewBox="0 0 66 58" fill="none" xmlns="http://www.w3.org/2000/svg">
<g clip-path="url(#clip0_127_1386)">
<g filter="url(#filter0_f_127_1386)">
<mask id="path-1-inside-1_127_1386" fill="white">
<path d="M39.6979 12.2696C39.8316 13.2981 39.8751 14.3392 39.8277 15.3774L39.8299 15.3412C39.8299 21.0059 39.815 26.6705 39.8426 32.3352C41.2371 33.1569 42.8808 33.6619 44.6223 33.7127H44.6372L44.7948 33.7151C45.8644 33.7193 46.9179 33.4185 47.8584 32.8403L47.8244 32.8596C48.8239 32.2308 49.6624 31.3181 50.2579 30.2109L50.2749 30.1771C50.9272 28.9288 51.3717 27.5551 51.5864 26.1244L51.5949 26.0543C51.8422 24.3684 51.9194 22.656 51.8248 20.9503L51.827 21.0131C51.8023 18.3713 51.3009 15.7632 50.3537 13.3499L50.3962 13.4731C49.8522 12.1748 49.1122 10.9946 48.2097 9.98586L48.2076 9.98345C47.377 9.05259 46.4489 8.24096 45.4441 7.56678L45.3781 7.5257C43.1542 6.09908 40.7961 4.96092 38.348 4.1327L38.1011 4.0602C36.5029 3.4802 34.8976 2.92436 33.2852 2.3927C30.4685 1.48645 27.639 0.616446 24.7584 0.00744629V54.1239L35.542 58.0074C35.5505 42.8404 35.5505 27.6743 35.542 12.5089L35.5399 12.3639C35.5399 11.4939 35.7783 10.6891 36.1871 10.0269L36.1786 10.039C36.3264 9.82275 36.5237 9.6566 36.7489 9.55861C36.9741 9.46062 37.2186 9.43454 37.456 9.4832L37.4475 9.48078C37.9457 9.5847 38.3842 9.82636 38.744 10.1719L38.7398 10.1671C39.2401 10.7084 39.585 11.431 39.6893 12.2406L39.6915 12.2599L39.6979 12.2696ZM11.5393 44.3436C15.2395 42.8429 18.9377 41.3252 22.6443 39.8341C22.6651 39.5472 22.6708 39.2591 22.6613 38.9714V32.7146C17.9732 34.5924 13.2936 36.4919 8.60547 38.3744C7.46218 38.8481 6.30186 39.2686 5.18198 39.8099C3.84147 40.416 2.56061 41.1798 1.36037 42.0889L1.43489 42.0357C0.922783 42.4055 0.505081 42.9213 0.223469 43.5316L0.214953 43.5534C0.0835577 43.8751 0.0102157 44.2235 -0.000753509 44.578C-0.0117227 44.9324 0.0399026 45.2857 0.151082 45.6172L0.144695 45.6003C0.44063 46.3784 0.898372 47.0237 1.47321 47.4974L1.48386 47.507C2.4845 48.3239 3.65547 48.9594 4.91798 49.334L4.9925 49.3534C8.28824 50.6342 12.0864 51.3713 16.0358 51.3713C16.2842 51.3713 16.5333 51.3681 16.7831 51.3616H16.7469C18.8026 51.308 20.8508 51.059 22.87 50.6173L22.64 50.6584C22.6699 50.3055 22.6528 49.9503 22.6571 49.5975V44.2953C21.0731 44.9397 19.4905 45.589 17.9093 46.2431C17.3327 46.5114 16.7364 46.7216 16.1273 46.8714L16.0486 46.8884C15.1025 47.1123 14.1386 47.2249 13.1722 47.2243H13.102C12.2333 47.2252 11.3708 47.0585 10.5514 46.7313L10.6046 46.7506C10.2926 46.6383 10.0304 46.3944 9.87224 46.0691L9.86798 46.0619C9.83403 45.9148 9.83784 45.7597 9.87896 45.615C9.92008 45.4703 9.99679 45.3419 10.1 45.245C10.5003 44.8463 10.9815 44.5345 11.5073 44.346L11.535 44.3364L11.5393 44.3436ZM65.1568 40.2836C64.2069 39.3905 63.1169 38.7092 61.9441 38.2754L61.8739 38.2536C61.216 38.0168 60.5773 37.7219 59.9194 37.4948C56.8706 36.4097 53.3641 35.7838 49.7299 35.7838H49.4978H49.5106C48.4418 35.8273 47.373 35.8611 46.3106 36.0013C43.0745 36.4 40.1194 37.1709 37.3091 38.2874L37.5901 38.1908V45.5374C41.4841 43.9908 45.3696 42.4272 49.2615 40.8781C50.5293 40.4112 51.8545 40.1762 53.1874 40.1821H53.2981H53.2917L53.4195 40.1797C54.2966 40.1797 55.1397 40.3513 55.9232 40.6654L55.87 40.6461C56.1791 40.7554 56.4401 40.9938 56.6002 41.3131L56.6045 41.3204C56.6397 41.5084 56.6221 41.7042 56.5541 41.8802C56.4861 42.0562 56.3712 42.2036 56.2255 42.3015L56.2213 42.3039C55.5733 42.7914 54.8621 43.1608 54.1135 43.3987L54.0603 43.4132C48.5958 45.6269 43.132 47.8381 37.6689 50.0469C37.5539 50.0711 37.5986 50.2306 37.588 50.3224V57.1713C44.7699 54.2407 51.9526 51.3125 59.1359 48.3867C60.5517 47.8599 61.712 47.3306 62.8362 46.7313L62.6403 46.8255C63.7233 46.2638 64.7045 45.4778 65.5337 44.5079L65.5358 44.5055C65.9573 44.0004 66.2171 43.3165 66.2171 42.5625V42.5335C66.1835 42.0976 66.0724 41.6763 65.8906 41.2904C65.7087 40.9045 65.4598 40.5645 65.159 40.2909L65.1526 40.286L65.1568 40.2836Z"/>
</mask>
<path d="M39.6979 12.2696C39.8316 13.2981 39.8751 14.3392 39.8277 15.3774L39.8299 15.3412C39.8299 21.0059 39.815 26.6705 39.8426 32.3352C41.2371 33.1569 42.8808 33.6619 44.6223 33.7127H44.6372L44.7948 33.7151C45.8644 33.7193 46.9179 33.4185 47.8584 32.8403L47.8244 32.8596C48.8239 32.2308 49.6624 31.3181 50.2579 30.2109L50.2749 30.1771C50.9272 28.9288 51.3717 27.5551 51.5864 26.1244L51.5949 26.0543C51.8422 24.3684 51.9194 22.656 51.8248 20.9503L51.827 21.0131C51.8023 18.3713 51.3009 15.7632 50.3537 13.3499L50.3962 13.4731C49.8522 12.1748 49.1122 10.9946 48.2097 9.98586L48.2076 9.98345C47.377 9.05259 46.4489 8.24096 45.4441 7.56678L45.3781 7.5257C43.1542 6.09908 40.7961 4.96092 38.348 4.1327L38.1011 4.0602C36.5029 3.4802 34.8976 2.92436 33.2852 2.3927C30.4685 1.48645 27.639 0.616446 24.7584 0.00744629V54.1239L35.542 58.0074C35.5505 42.8404 35.5505 27.6743 35.542 12.5089L35.5399 12.3639C35.5399 11.4939 35.7783 10.6891 36.1871 10.0269L36.1786 10.039C36.3264 9.82275 36.5237 9.6566 36.7489 9.55861C36.9741 9.46062 37.2186 9.43454 37.456 9.4832L37.4475 9.48078C37.9457 9.5847 38.3842 9.82636 38.744 10.1719L38.7398 10.1671C39.2401 10.7084 39.585 11.431 39.6893 12.2406L39.6915 12.2599L39.6979 12.2696ZM11.5393 44.3436C15.2395 42.8429 18.9377 41.3252 22.6443 39.8341C22.6651 39.5472 22.6708 39.2591 22.6613 38.9714V32.7146C17.9732 34.5924 13.2936 36.4919 8.60547 38.3744C7.46218 38.8481 6.30186 39.2686 5.18198 39.8099C3.84147 40.416 2.56061 41.1798 1.36037 42.0889L1.43489 42.0357C0.922783 42.4055 0.505081 42.9213 0.223469 43.5316L0.214953 43.5534C0.0835577 43.8751 0.0102157 44.2235 -0.000753509 44.578C-0.0117227 44.9324 0.0399026 45.2857 0.151082 45.6172L0.144695 45.6003C0.44063 46.3784 0.898372 47.0237 1.47321 47.4974L1.48386 47.507C2.4845 48.3239 3.65547 48.9594 4.91798 49.334L4.9925 49.3534C8.28824 50.6342 12.0864 51.3713 16.0358 51.3713C16.2842 51.3713 16.5333 51.3681 16.7831 51.3616H16.7469C18.8026 51.308 20.8508 51.059 22.87 50.6173L22.64 50.6584C22.6699 50.3055 22.6528 49.9503 22.6571 49.5975V44.2953C21.0731 44.9397 19.4905 45.589 17.9093 46.2431C17.3327 46.5114 16.7364 46.7216 16.1273 46.8714L16.0486 46.8884C15.1025 47.1123 14.1386 47.2249 13.1722 47.2243H13.102C12.2333 47.2252 11.3708 47.0585 10.5514 46.7313L10.6046 46.7506C10.2926 46.6383 10.0304 46.3944 9.87224 46.0691L9.86798 46.0619C9.83403 45.9148 9.83784 45.7597 9.87896 45.615C9.92008 45.4703 9.99679 45.3419 10.1 45.245C10.5003 44.8463 10.9815 44.5345 11.5073 44.346L11.535 44.3364L11.5393 44.3436ZM65.1568 40.2836C64.2069 39.3905 63.1169 38.7092 61.9441 38.2754L61.8739 38.2536C61.216 38.0168 60.5773 37.7219 59.9194 37.4948C56.8706 36.4097 53.3641 35.7838 49.7299 35.7838H49.4978H49.5106C48.4418 35.8273 47.373 35.8611 46.3106 36.0013C43.0745 36.4 40.1194 37.1709 37.3091 38.2874L37.5901 38.1908V45.5374C41.4841 43.9908 45.3696 42.4272 49.2615 40.8781C50.5293 40.4112 51.8545 40.1762 53.1874 40.1821H53.2981H53.2917L53.4195 40.1797C54.2966 40.1797 55.1397 40.3513 55.9232 40.6654L55.87 40.6461C56.1791 40.7554 56.4401 40.9938 56.6002 41.3131L56.6045 41.3204C56.6397 41.5084 56.6221 41.7042 56.5541 41.8802C56.4861 42.0562 56.3712 42.2036 56.2255 42.3015L56.2213 42.3039C55.5733 42.7914 54.8621 43.1608 54.1135 43.3987L54.0603 43.4132C48.5958 45.6269 43.132 47.8381 37.6689 50.0469C37.5539 50.0711 37.5986 50.2306 37.588 50.3224V57.1713C44.7699 54.2407 51.9526 51.3125 59.1359 48.3867C60.5517 47.8599 61.712 47.3306 62.8362 46.7313L62.6403 46.8255C63.7233 46.2638 64.7045 45.4778 65.5337 44.5079L65.5358 44.5055C65.9573 44.0004 66.2171 43.3165 66.2171 42.5625V42.5335C66.1835 42.0976 66.0724 41.6763 65.8906 41.2904C65.7087 40.9045 65.4598 40.5645 65.159 40.2909L65.1526 40.286L65.1568 40.2836Z" stroke="#00BBFF" stroke-width="3.4" mask="url(#path-1-inside-1_127_1386)"/>
</g>
</g>
<g clip-path="url(#clip1_127_1386)">
<g filter="url(#filter1_f_127_1386)">
<mask id="path-2-inside-2_127_1386" fill="white">
<path d="M39.6979 12.2696C39.8316 13.2981 39.8751 14.3392 39.8277 15.3774L39.8299 15.3412C39.8299 21.0059 39.815 26.6705 39.8426 32.3352C41.2371 33.1569 42.8808 33.6619 44.6223 33.7127H44.6372L44.7948 33.7151C45.8644 33.7193 46.9179 33.4185 47.8584 32.8403L47.8244 32.8596C48.8239 32.2308 49.6624 31.3181 50.2579 30.2109L50.2749 30.1771C50.9272 28.9288 51.3717 27.5551 51.5864 26.1244L51.5949 26.0543C51.8422 24.3684 51.9194 22.656 51.8248 20.9503L51.827 21.0131C51.8023 18.3713 51.3009 15.7632 50.3537 13.3499L50.3962 13.4731C49.8522 12.1748 49.1122 10.9946 48.2097 9.98586L48.2076 9.98345C47.377 9.05259 46.4489 8.24096 45.4441 7.56678L45.3781 7.5257C43.1542 6.09908 40.7961 4.96092 38.348 4.1327L38.1011 4.0602C36.5029 3.4802 34.8976 2.92436 33.2852 2.3927C30.4685 1.48645 27.639 0.616446 24.7584 0.00744629V54.1239L35.542 58.0074C35.5505 42.8404 35.5505 27.6743 35.542 12.5089L35.5399 12.3639C35.5399 11.4939 35.7783 10.6891 36.1871 10.0269L36.1786 10.039C36.3264 9.82275 36.5237 9.6566 36.7489 9.55861C36.9741 9.46062 37.2186 9.43454 37.456 9.4832L37.4475 9.48078C37.9457 9.5847 38.3842 9.82636 38.744 10.1719L38.7398 10.1671C39.2401 10.7084 39.585 11.431 39.6893 12.2406L39.6915 12.2599L39.6979 12.2696ZM11.5393 44.3436C15.2395 42.8429 18.9377 41.3252 22.6443 39.8341C22.6651 39.5472 22.6708 39.2591 22.6613 38.9714V32.7146C17.9732 34.5924 13.2936 36.4919 8.60547 38.3744C7.46218 38.8481 6.30186 39.2686 5.18198 39.8099C3.84147 40.416 2.56061 41.1798 1.36037 42.0889L1.43489 42.0357C0.922783 42.4055 0.505081 42.9213 0.223469 43.5316L0.214953 43.5534C0.0835577 43.8751 0.0102157 44.2235 -0.000753509 44.578C-0.0117227 44.9324 0.0399026 45.2857 0.151082 45.6172L0.144695 45.6003C0.44063 46.3784 0.898372 47.0237 1.47321 47.4974L1.48386 47.507C2.4845 48.3239 3.65547 48.9594 4.91798 49.334L4.9925 49.3534C8.28824 50.6342 12.0864 51.3713 16.0358 51.3713C16.2842 51.3713 16.5333 51.3681 16.7831 51.3616H16.7469C18.8026 51.308 20.8508 51.059 22.87 50.6173L22.64 50.6584C22.6699 50.3055 22.6528 49.9503 22.6571 49.5975V44.2953C21.0731 44.9397 19.4905 45.589 17.9093 46.2431C17.3327 46.5114 16.7364 46.7216 16.1273 46.8714L16.0486 46.8884C15.1025 47.1123 14.1386 47.2249 13.1722 47.2243H13.102C12.2333 47.2252 11.3708 47.0585 10.5514 46.7313L10.6046 46.7506C10.2926 46.6383 10.0304 46.3944 9.87224 46.0691L9.86798 46.0619C9.83403 45.9148 9.83784 45.7597 9.87896 45.615C9.92008 45.4703 9.99679 45.3419 10.1 45.245C10.5003 44.8463 10.9815 44.5345 11.5073 44.346L11.535 44.3364L11.5393 44.3436ZM65.1568 40.2836C64.2069 39.3905 63.1169 38.7092 61.9441 38.2754L61.8739 38.2536C61.216 38.0168 60.5773 37.7219 59.9194 37.4948C56.8706 36.4097 53.3641 35.7838 49.7299 35.7838H49.4978H49.5106C48.4418 35.8273 47.373 35.8611 46.3106 36.0013C43.0745 36.4 40.1194 37.1709 37.3091 38.2874L37.5901 38.1908V45.5374C41.4841 43.9908 45.3696 42.4272 49.2615 40.8781C50.5293 40.4112 51.8545 40.1762 53.1874 40.1821H53.2981H53.2917L53.4195 40.1797C54.2966 40.1797 55.1397 40.3513 55.9232 40.6654L55.87 40.6461C56.1791 40.7554 56.4401 40.9938 56.6002 41.3131L56.6045 41.3204C56.6397 41.5084 56.6221 41.7042 56.5541 41.8802C56.4861 42.0562 56.3712 42.2036 56.2255 42.3015L56.2213 42.3039C55.5733 42.7914 54.8621 43.1608 54.1135 43.3987L54.0603 43.4132C48.5958 45.6269 43.132 47.8381 37.6689 50.0469C37.5539 50.0711 37.5986 50.2306 37.588 50.3224V57.1713C44.7699 54.2407 51.9526 51.3125 59.1359 48.3867C60.5517 47.8599 61.712 47.3306 62.8362 46.7313L62.6403 46.8255C63.7233 46.2638 64.7045 45.4778 65.5337 44.5079L65.5358 44.5055C65.9573 44.0004 66.2171 43.3165 66.2171 42.5625V42.5335C66.1835 42.0976 66.0724 41.6763 65.8906 41.2904C65.7087 40.9045 65.4598 40.5645 65.159 40.2909L65.1526 40.286L65.1568 40.2836Z"/>
</mask>
<path d="M39.6979 12.2696C39.8316 13.2981 39.8751 14.3392 39.8277 15.3774L39.8299 15.3412C39.8299 21.0059 39.815 26.6705 39.8426 32.3352C41.2371 33.1569 42.8808 33.6619 44.6223 33.7127H44.6372L44.7948 33.7151C45.8644 33.7193 46.9179 33.4185 47.8584 32.8403L47.8244 32.8596C48.8239 32.2308 49.6624 31.3181 50.2579 30.2109L50.2749 30.1771C50.9272 28.9288 51.3717 27.5551 51.5864 26.1244L51.5949 26.0543C51.8422 24.3684 51.9194 22.656 51.8248 20.9503L51.827 21.0131C51.8023 18.3713 51.3009 15.7632 50.3537 13.3499L50.3962 13.4731C49.8522 12.1748 49.1122 10.9946 48.2097 9.98586L48.2076 9.98345C47.377 9.05259 46.4489 8.24096 45.4441 7.56678L45.3781 7.5257C43.1542 6.09908 40.7961 4.96092 38.348 4.1327L38.1011 4.0602C36.5029 3.4802 34.8976 2.92436 33.2852 2.3927C30.4685 1.48645 27.639 0.616446 24.7584 0.00744629V54.1239L35.542 58.0074C35.5505 42.8404 35.5505 27.6743 35.542 12.5089L35.5399 12.3639C35.5399 11.4939 35.7783 10.6891 36.1871 10.0269L36.1786 10.039C36.3264 9.82275 36.5237 9.6566 36.7489 9.55861C36.9741 9.46062 37.2186 9.43454 37.456 9.4832L37.4475 9.48078C37.9457 9.5847 38.3842 9.82636 38.744 10.1719L38.7398 10.1671C39.2401 10.7084 39.585 11.431 39.6893 12.2406L39.6915 12.2599L39.6979 12.2696ZM11.5393 44.3436C15.2395 42.8429 18.9377 41.3252 22.6443 39.8341C22.6651 39.5472 22.6708 39.2591 22.6613 38.9714V32.7146C17.9732 34.5924 13.2936 36.4919 8.60547 38.3744C7.46218 38.8481 6.30186 39.2686 5.18198 39.8099C3.84147 40.416 2.56061 41.1798 1.36037 42.0889L1.43489 42.0357C0.922783 42.4055 0.505081 42.9213 0.223469 43.5316L0.214953 43.5534C0.0835577 43.8751 0.0102157 44.2235 -0.000753509 44.578C-0.0117227 44.9324 0.0399026 45.2857 0.151082 45.6172L0.144695 45.6003C0.44063 46.3784 0.898372 47.0237 1.47321 47.4974L1.48386 47.507C2.4845 48.3239 3.65547 48.9594 4.91798 49.334L4.9925 49.3534C8.28824 50.6342 12.0864 51.3713 16.0358 51.3713C16.2842 51.3713 16.5333 51.3681 16.7831 51.3616H16.7469C18.8026 51.308 20.8508 51.059 22.87 50.6173L22.64 50.6584C22.6699 50.3055 22.6528 49.9503 22.6571 49.5975V44.2953C21.0731 44.9397 19.4905 45.589 17.9093 46.2431C17.3327 46.5114 16.7364 46.7216 16.1273 46.8714L16.0486 46.8884C15.1025 47.1123 14.1386 47.2249 13.1722 47.2243H13.102C12.2333 47.2252 11.3708 47.0585 10.5514 46.7313L10.6046 46.7506C10.2926 46.6383 10.0304 46.3944 9.87224 46.0691L9.86798 46.0619C9.83403 45.9148 9.83784 45.7597 9.87896 45.615C9.92008 45.4703 9.99679 45.3419 10.1 45.245C10.5003 44.8463 10.9815 44.5345 11.5073 44.346L11.535 44.3364L11.5393 44.3436ZM65.1568 40.2836C64.2069 39.3905 63.1169 38.7092 61.9441 38.2754L61.8739 38.2536C61.216 38.0168 60.5773 37.7219 59.9194 37.4948C56.8706 36.4097 53.3641 35.7838 49.7299 35.7838H49.4978H49.5106C48.4418 35.8273 47.373 35.8611 46.3106 36.0013C43.0745 36.4 40.1194 37.1709 37.3091 38.2874L37.5901 38.1908V45.5374C41.4841 43.9908 45.3696 42.4272 49.2615 40.8781C50.5293 40.4112 51.8545 40.1762 53.1874 40.1821H53.2981H53.2917L53.4195 40.1797C54.2966 40.1797 55.1397 40.3513 55.9232 40.6654L55.87 40.6461C56.1791 40.7554 56.4401 40.9938 56.6002 41.3131L56.6045 41.3204C56.6397 41.5084 56.6221 41.7042 56.5541 41.8802C56.4861 42.0562 56.3712 42.2036 56.2255 42.3015L56.2213 42.3039C55.5733 42.7914 54.8621 43.1608 54.1135 43.3987L54.0603 43.4132C48.5958 45.6269 43.132 47.8381 37.6689 50.0469C37.5539 50.0711 37.5986 50.2306 37.588 50.3224V57.1713C44.7699 54.2407 51.9526 51.3125 59.1359 48.3867C60.5517 47.8599 61.712 47.3306 62.8362 46.7313L62.6403 46.8255C63.7233 46.2638 64.7045 45.4778 65.5337 44.5079L65.5358 44.5055C65.9573 44.0004 66.2171 43.3165 66.2171 42.5625V42.5335C66.1835 42.0976 66.0724 41.6763 65.8906 41.2904C65.7087 40.9045 65.4598 40.5645 65.159 40.2909L65.1526 40.286L65.1568 40.2836Z" stroke="#69D7FF" stroke-width="2" mask="url(#path-2-inside-2_127_1386)"/>
</g>
</g>
<g clip-path="url(#clip2_127_1386)">
<g filter="url(#filter2_f_127_1386)">
<mask id="path-3-inside-3_127_1386" fill="white">
<path d="M39.6979 12.2696C39.8316 13.2981 39.8751 14.3392 39.8277 15.3774L39.8299 15.3412C39.8299 21.0059 39.815 26.6705 39.8426 32.3352C41.2371 33.1569 42.8808 33.6619 44.6223 33.7127H44.6372L44.7948 33.7151C45.8644 33.7193 46.9179 33.4185 47.8584 32.8403L47.8244 32.8596C48.8239 32.2308 49.6624 31.3181 50.2579 30.2109L50.2749 30.1771C50.9272 28.9288 51.3717 27.5551 51.5864 26.1244L51.5949 26.0543C51.8422 24.3684 51.9194 22.656 51.8248 20.9503L51.827 21.0131C51.8023 18.3713 51.3009 15.7632 50.3537 13.3499L50.3962 13.4731C49.8522 12.1748 49.1122 10.9946 48.2097 9.98586L48.2076 9.98345C47.377 9.05259 46.4489 8.24096 45.4441 7.56678L45.3781 7.5257C43.1542 6.09908 40.7961 4.96092 38.348 4.1327L38.1011 4.0602C36.5029 3.4802 34.8976 2.92436 33.2852 2.3927C30.4685 1.48645 27.639 0.616446 24.7584 0.00744629V54.1239L35.542 58.0074C35.5505 42.8404 35.5505 27.6743 35.542 12.5089L35.5399 12.3639C35.5399 11.4939 35.7783 10.6891 36.1871 10.0269L36.1786 10.039C36.3264 9.82275 36.5237 9.6566 36.7489 9.55861C36.9741 9.46062 37.2186 9.43454 37.456 9.4832L37.4475 9.48078C37.9457 9.5847 38.3842 9.82636 38.744 10.1719L38.7398 10.1671C39.2401 10.7084 39.585 11.431 39.6893 12.2406L39.6915 12.2599L39.6979 12.2696ZM11.5393 44.3436C15.2395 42.8429 18.9377 41.3252 22.6443 39.8341C22.6651 39.5472 22.6708 39.2591 22.6613 38.9714V32.7146C17.9732 34.5924 13.2936 36.4919 8.60547 38.3744C7.46218 38.8481 6.30186 39.2686 5.18198 39.8099C3.84147 40.416 2.56061 41.1798 1.36037 42.0889L1.43489 42.0357C0.922783 42.4055 0.505081 42.9213 0.223469 43.5316L0.214953 43.5534C0.0835577 43.8751 0.0102157 44.2235 -0.000753509 44.578C-0.0117227 44.9324 0.0399026 45.2857 0.151082 45.6172L0.144695 45.6003C0.44063 46.3784 0.898372 47.0237 1.47321 47.4974L1.48386 47.507C2.4845 48.3239 3.65547 48.9594 4.91798 49.334L4.9925 49.3534C8.28824 50.6342 12.0864 51.3713 16.0358 51.3713C16.2842 51.3713 16.5333 51.3681 16.7831 51.3616H16.7469C18.8026 51.308 20.8508 51.059 22.87 50.6173L22.64 50.6584C22.6699 50.3055 22.6528 49.9503 22.6571 49.5975V44.2953C21.0731 44.9397 19.4905 45.589 17.9093 46.2431C17.3327 46.5114 16.7364 46.7216 16.1273 46.8714L16.0486 46.8884C15.1025 47.1123 14.1386 47.2249 13.1722 47.2243H13.102C12.2333 47.2252 11.3708 47.0585 10.5514 46.7313L10.6046 46.7506C10.2926 46.6383 10.0304 46.3944 9.87224 46.0691L9.86798 46.0619C9.83403 45.9148 9.83784 45.7597 9.87896 45.615C9.92008 45.4703 9.99679 45.3419 10.1 45.245C10.5003 44.8463 10.9815 44.5345 11.5073 44.346L11.535 44.3364L11.5393 44.3436ZM65.1568 40.2836C64.2069 39.3905 63.1169 38.7092 61.9441 38.2754L61.8739 38.2536C61.216 38.0168 60.5773 37.7219 59.9194 37.4948C56.8706 36.4097 53.3641 35.7838 49.7299 35.7838H49.4978H49.5106C48.4418 35.8273 47.373 35.8611 46.3106 36.0013C43.0745 36.4 40.1194 37.1709 37.3091 38.2874L37.5901 38.1908V45.5374C41.4841 43.9908 45.3696 42.4272 49.2615 40.8781C50.5293 40.4112 51.8545 40.1762 53.1874 40.1821H53.2981H53.2917L53.4195 40.1797C54.2966 40.1797 55.1397 40.3513 55.9232 40.6654L55.87 40.6461C56.1791 40.7554 56.4401 40.9938 56.6002 41.3131L56.6045 41.3204C56.6397 41.5084 56.6221 41.7042 56.5541 41.8802C56.4861 42.0562 56.3712 42.2036 56.2255 42.3015L56.2213 42.3039C55.5733 42.7914 54.8621 43.1608 54.1135 43.3987L54.0603 43.4132C48.5958 45.6269 43.132 47.8381 37.6689 50.0469C37.5539 50.0711 37.5986 50.2306 37.588 50.3224V57.1713C44.7699 54.2407 51.9526 51.3125 59.1359 48.3867C60.5517 47.8599 61.712 47.3306 62.8362 46.7313L62.6403 46.8255C63.7233 46.2638 64.7045 45.4778 65.5337 44.5079L65.5358 44.5055C65.9573 44.0004 66.2171 43.3165 66.2171 42.5625V42.5335C66.1835 42.0976 66.0724 41.6763 65.8906 41.2904C65.7087 40.9045 65.4598 40.5645 65.159 40.2909L65.1526 40.286L65.1568 40.2836Z"/>
</mask>
<path d="M39.6979 12.2696C39.8316 13.2981 39.8751 14.3392 39.8277 15.3774L39.8299 15.3412C39.8299 21.0059 39.815 26.6705 39.8426 32.3352C41.2371 33.1569 42.8808 33.6619 44.6223 33.7127H44.6372L44.7948 33.7151C45.8644 33.7193 46.9179 33.4185 47.8584 32.8403L47.8244 32.8596C48.8239 32.2308 49.6624 31.3181 50.2579 30.2109L50.2749 30.1771C50.9272 28.9288 51.3717 27.5551 51.5864 26.1244L51.5949 26.0543C51.8422 24.3684 51.9194 22.656 51.8248 20.9503L51.827 21.0131C51.8023 18.3713 51.3009 15.7632 50.3537 13.3499L50.3962 13.4731C49.8522 12.1748 49.1122 10.9946 48.2097 9.98586L48.2076 9.98345C47.377 9.05259 46.4489 8.24096 45.4441 7.56678L45.3781 7.5257C43.1542 6.09908 40.7961 4.96092 38.348 4.1327L38.1011 4.0602C36.5029 3.4802 34.8976 2.92436 33.2852 2.3927C30.4685 1.48645 27.639 0.616446 24.7584 0.00744629V54.1239L35.542 58.0074C35.5505 42.8404 35.5505 27.6743 35.542 12.5089L35.5399 12.3639C35.5399 11.4939 35.7783 10.6891 36.1871 10.0269L36.1786 10.039C36.3264 9.82275 36.5237 9.6566 36.7489 9.55861C36.9741 9.46062 37.2186 9.43454 37.456 9.4832L37.4475 9.48078C37.9457 9.5847 38.3842 9.82636 38.744 10.1719L38.7398 10.1671C39.2401 10.7084 39.585 11.431 39.6893 12.2406L39.6915 12.2599L39.6979 12.2696ZM11.5393 44.3436C15.2395 42.8429 18.9377 41.3252 22.6443 39.8341C22.6651 39.5472 22.6708 39.2591 22.6613 38.9714V32.7146C17.9732 34.5924 13.2936 36.4919 8.60547 38.3744C7.46218 38.8481 6.30186 39.2686 5.18198 39.8099C3.84147 40.416 2.56061 41.1798 1.36037 42.0889L1.43489 42.0357C0.922783 42.4055 0.505081 42.9213 0.223469 43.5316L0.214953 43.5534C0.0835577 43.8751 0.0102157 44.2235 -0.000753509 44.578C-0.0117227 44.9324 0.0399026 45.2857 0.151082 45.6172L0.144695 45.6003C0.44063 46.3784 0.898372 47.0237 1.47321 47.4974L1.48386 47.507C2.4845 48.3239 3.65547 48.9594 4.91798 49.334L4.9925 49.3534C8.28824 50.6342 12.0864 51.3713 16.0358 51.3713C16.2842 51.3713 16.5333 51.3681 16.7831 51.3616H16.7469C18.8026 51.308 20.8508 51.059 22.87 50.6173L22.64 50.6584C22.6699 50.3055 22.6528 49.9503 22.6571 49.5975V44.2953C21.0731 44.9397 19.4905 45.589 17.9093 46.2431C17.3327 46.5114 16.7364 46.7216 16.1273 46.8714L16.0486 46.8884C15.1025 47.1123 14.1386 47.2249 13.1722 47.2243H13.102C12.2333 47.2252 11.3708 47.0585 10.5514 46.7313L10.6046 46.7506C10.2926 46.6383 10.0304 46.3944 9.87224 46.0691L9.86798 46.0619C9.83403 45.9148 9.83784 45.7597 9.87896 45.615C9.92008 45.4703 9.99679 45.3419 10.1 45.245C10.5003 44.8463 10.9815 44.5345 11.5073 44.346L11.535 44.3364L11.5393 44.3436ZM65.1568 40.2836C64.2069 39.3905 63.1169 38.7092 61.9441 38.2754L61.8739 38.2536C61.216 38.0168 60.5773 37.7219 59.9194 37.4948C56.8706 36.4097 53.3641 35.7838 49.7299 35.7838H49.4978H49.5106C48.4418 35.8273 47.373 35.8611 46.3106 36.0013C43.0745 36.4 40.1194 37.1709 37.3091 38.2874L37.5901 38.1908V45.5374C41.4841 43.9908 45.3696 42.4272 49.2615 40.8781C50.5293 40.4112 51.8545 40.1762 53.1874 40.1821H53.2981H53.2917L53.4195 40.1797C54.2966 40.1797 55.1397 40.3513 55.9232 40.6654L55.87 40.6461C56.1791 40.7554 56.4401 40.9938 56.6002 41.3131L56.6045 41.3204C56.6397 41.5084 56.6221 41.7042 56.5541 41.8802C56.4861 42.0562 56.3712 42.2036 56.2255 42.3015L56.2213 42.3039C55.5733 42.7914 54.8621 43.1608 54.1135 43.3987L54.0603 43.4132C48.5958 45.6269 43.132 47.8381 37.6689 50.0469C37.5539 50.0711 37.5986 50.2306 37.588 50.3224V57.1713C44.7699 54.2407 51.9526 51.3125 59.1359 48.3867C60.5517 47.8599 61.712 47.3306 62.8362 46.7313L62.6403 46.8255C63.7233 46.2638 64.7045 45.4778 65.5337 44.5079L65.5358 44.5055C65.9573 44.0004 66.2171 43.3165 66.2171 42.5625V42.5335C66.1835 42.0976 66.0724 41.6763 65.8906 41.2904C65.7087 40.9045 65.4598 40.5645 65.159 40.2909L65.1526 40.286L65.1568 40.2836Z" stroke="white" mask="url(#path-3-inside-3_127_1386)"/>
</g>
</g>
<defs>
<filter id="filter0_f_127_1386" x="-0.902197" y="-0.892554" width="68.0192" height="59.8" filterUnits="userSpaceOnUse" color-interpolation-filters="sRGB">
<feFlood flood-opacity="0" result="BackgroundImageFix"/>
<feBlend mode="normal" in="SourceGraphic" in2="BackgroundImageFix" result="shape"/>
<feGaussianBlur stdDeviation="0.45" result="effect1_foregroundBlur_127_1386"/>
</filter>
<filter id="filter1_f_127_1386" x="-1.5022" y="-1.49255" width="69.2192" height="61" filterUnits="userSpaceOnUse" color-interpolation-filters="sRGB">
<feFlood flood-opacity="0" result="BackgroundImageFix"/>
<feBlend mode="normal" in="SourceGraphic" in2="BackgroundImageFix" result="shape"/>
<feGaussianBlur stdDeviation="0.75" result="effect1_foregroundBlur_127_1386"/>
</filter>
<filter id="filter2_f_127_1386" x="-0.702197" y="-0.692554" width="67.6192" height="59.4" filterUnits="userSpaceOnUse" color-interpolation-filters="sRGB">
<feFlood flood-opacity="0" result="BackgroundImageFix"/>
<feBlend mode="normal" in="SourceGraphic" in2="BackgroundImageFix" result="shape"/>
<feGaussianBlur stdDeviation="0.35" result="effect1_foregroundBlur_127_1386"/>
</filter>
<clipPath id="clip0_127_1386">
<rect width="66" height="58" fill="white"/>
</clipPath>
<clipPath id="clip1_127_1386">
<rect width="66" height="58" fill="white"/>
</clipPath>
<clipPath id="clip2_127_1386">
<rect width="66" height="58" fill="white"/>
</clipPath>
</defs>
</svg>
