<svg width="58" height="58" viewBox="0 0 58 58" fill="none" xmlns="http://www.w3.org/2000/svg">
<path d="M24.9093 17.4481C26.461 13.5798 27.2368 11.6456 28.4973 11.3776C28.8287 11.3071 29.1713 11.3071 29.5027 11.3776C30.7632 11.6456 31.539 13.5798 33.0907 17.4481C33.9731 19.648 34.4143 20.7479 35.2399 21.496C35.4714 21.7058 35.7228 21.8927 35.9904 22.054C36.9446 22.6292 38.1358 22.7358 40.5181 22.9492C44.5509 23.3104 46.5674 23.4909 47.1831 24.6407C47.3107 24.8788 47.3974 25.1366 47.4397 25.4034C47.6438 26.6915 46.1614 28.0402 43.1967 30.7375L42.3734 31.4865C40.9873 32.7475 40.2943 33.378 39.8934 34.1649C39.653 34.6369 39.4917 35.1453 39.4162 35.6696C39.2903 36.5437 39.4932 37.4584 39.8991 39.2877L40.0441 39.9414C40.772 43.2221 41.1359 44.8624 40.6816 45.6687C40.2735 46.3929 39.5218 46.8566 38.6915 46.8963C37.767 46.9404 36.4645 45.879 33.8594 43.7562C32.143 42.3577 31.2849 41.6584 30.3322 41.3852C29.4616 41.1356 28.5384 41.1356 27.6678 41.3852C26.7151 41.6584 25.8569 42.3577 24.1406 43.7562C21.5355 45.879 20.2329 46.9404 19.3085 46.8963C18.4781 46.8566 17.7264 46.3929 17.3184 45.6687C16.864 44.8624 17.228 43.2221 17.9559 39.9414L18.1009 39.2877C18.5068 37.4584 18.7097 36.5437 18.5838 35.6696C18.5082 35.1453 18.347 34.6369 18.1065 34.1649C17.7057 33.378 17.0127 32.7475 15.6266 31.4865L14.8033 30.7375C11.8386 28.0402 10.3562 26.6915 10.5603 25.4034C10.6026 25.1366 10.6893 24.8788 10.8168 24.6407C11.4326 23.4909 13.449 23.3104 17.4819 22.9492C19.8642 22.7358 21.0553 22.6292 22.0095 22.054C22.2772 21.8927 22.5285 21.7058 22.7601 21.496C23.5857 20.7479 24.0269 19.648 24.9093 17.4481Z" stroke="#E3FFF4"/>
</svg>
