<svg width="22" height="22" viewBox="0 0 22 22" fill="none" xmlns="http://www.w3.org/2000/svg">
<path d="M9.20337 18.7H6.52671C5.67421 18.7 4.85837 18.3333 4.25337 17.7466C3.66671 17.1416 3.30004 16.3258 3.30004 15.4733V6.52665C3.30004 5.67415 3.66671 4.85831 4.25337 4.25331C4.85837 3.66665 5.67421 3.31831 6.52671 3.31831H9.20337V18.7ZM6.52671 1.83331C5.28196 1.83331 4.08819 2.32779 3.20802 3.20796C2.32785 4.08813 1.83337 5.2819 1.83337 6.52665V15.4733C1.83337 18.0675 3.93254 20.1666 6.52671 20.1666H10.6792V1.83331H6.52671ZM4.68421 7.33331C4.68421 8.28665 5.45421 9.05665 6.41671 9.05665C7.36087 9.05665 8.13087 8.28665 8.13087 7.33331C8.13087 6.37998 7.36087 5.60998 6.41671 5.60998C5.45421 5.60998 4.68421 6.37998 4.68421 7.33331ZM16.1425 10.0833C17.16 10.0833 17.985 10.8991 17.985 11.9166C17.985 12.9433 17.16 13.75 16.1425 13.75C15.125 13.75 14.2817 12.9433 14.2817 11.9166C14.2817 10.8991 15.125 10.0833 16.1425 10.0833ZM15.4734 20.1666C16.7181 20.1666 17.9119 19.6722 18.7921 18.792C19.6722 17.9118 20.1667 16.7181 20.1667 15.4733V6.52665C20.1667 3.93248 18.0675 1.83331 15.4734 1.83331H12.5125V20.1666H15.4734Z" fill="#E3FFF4"/>
</svg>
