<svg width="21" height="21" viewBox="0 0 21 21" fill="none" xmlns="http://www.w3.org/2000/svg">
<path d="M15.75 7.875L15.015 15.2233C14.9039 16.3371 14.8488 16.8936 14.595 17.3145C14.3724 17.685 14.0451 17.9812 13.6544 18.1659C13.2107 18.375 12.6525 18.375 11.5325 18.375H9.4675C8.34837 18.375 7.78925 18.375 7.34563 18.165C6.95454 17.9805 6.62691 17.6842 6.40412 17.3136C6.15212 16.8936 6.09613 16.3371 5.98413 15.2233L5.25 7.875M11.8125 13.5625V9.1875M9.1875 13.5625V9.1875M3.9375 5.6875H7.97562M7.97562 5.6875L8.31338 3.3495C8.41138 2.92425 8.76487 2.625 9.17087 2.625H11.8291C12.2351 2.625 12.5877 2.92425 12.6866 3.3495L13.0244 5.6875M7.97562 5.6875H13.0244M13.0244 5.6875H17.0625" stroke="#E3FFF4" stroke-linecap="round" stroke-linejoin="round"/>
</svg>
