<svg width="19" height="19" viewBox="0 0 19 19" fill="none" xmlns="http://www.w3.org/2000/svg">
<g clip-path="url(#clip0_6_3236)">
<path d="M8.55247 18.9605C7.04738 18.8048 5.60125 18.2918 4.33447 17.4643C3.2681 16.7696 3.02704 16.4834 3.02704 15.9134C3.02704 14.7675 4.28816 12.7594 6.44585 10.4711C7.67016 9.17078 9.37779 7.64722 9.56185 7.68878C9.92048 7.76953 12.7895 10.5661 13.863 11.8818C15.5611 13.9635 16.3425 15.6688 15.9459 16.4288C15.6442 17.0059 13.7727 18.1352 12.3988 18.5687C11.2659 18.9261 9.77797 19.0781 8.55247 18.9605ZM1.5866 14.7212C0.699537 13.3627 0.251849 12.0255 0.0357242 10.0899C-0.0355258 9.44984 -0.00940082 9.08528 0.198412 7.77428C0.457287 6.13909 1.38829 4.2474 2.5081 3.08365C2.98429 2.58847 3.02704 2.57659 3.60772 2.77134C4.31429 3.00884 5.06835 3.52897 6.23566 4.58584L6.91729 5.20215L6.5456 5.65934C4.8166 7.7814 2.9926 10.7893 2.30385 12.6502C1.92979 13.6619 1.77897 14.6772 1.94047 15.1C2.04854 15.385 1.94879 15.2781 1.58422 14.7212H1.5866ZM17.144 14.9527C17.2319 14.5252 17.1215 13.7415 16.8614 12.9494C16.2997 11.2358 14.4211 8.0474 12.6957 5.88022L12.153 5.1974L12.7396 4.65828C13.5067 3.95409 14.0399 3.53253 14.6158 3.1739C15.0683 2.89247 15.7167 2.6419 15.9945 2.6419C16.1667 2.6419 16.7712 3.2689 17.2592 3.9529C18.0349 5.06003 18.5775 6.31327 18.854 7.63653C19.0357 8.50103 19.0512 10.3512 18.8825 11.2133C18.7242 11.9854 18.4854 12.7389 18.17 13.4612C17.9575 13.9279 17.429 14.834 17.1963 15.1285C17.0775 15.2805 17.0763 15.2793 17.144 14.9527ZM8.71041 2.31772C7.91479 1.91397 6.68691 1.48053 6.00766 1.36415C5.70953 1.31856 5.40773 1.30146 5.10635 1.31309C4.54704 1.34159 4.57197 1.31309 5.46972 0.887965C6.17358 0.550247 6.91731 0.302869 7.68322 0.151715C8.63322 -0.0489724 10.4216 -0.0501599 11.3573 0.145778C12.3667 0.359528 13.5578 0.801278 14.2287 1.21453L14.4282 1.33684L13.971 1.31309C13.0614 1.26797 11.7385 1.63372 10.3159 2.32603C9.88723 2.53503 9.51316 2.70128 9.48585 2.69653C9.2232 2.57814 8.9654 2.45181 8.71041 2.31772Z" fill="#E3FFF4"/>
</g>
<defs>
<clipPath id="clip0_6_3236">
<rect width="19" height="19" fill="white"/>
</clipPath>
</defs>
</svg>
