<svg width="66" height="62" viewBox="0 0 66 62" fill="none" xmlns="http://www.w3.org/2000/svg">
<g filter="url(#filter0_f_119_1034)">
<path d="M30.0536 58.6572C25.3719 58.204 20.8737 56.7048 16.9347 54.2849C13.6168 52.2519 12.8675 51.4161 12.8675 49.7486C12.8675 46.398 16.7903 40.5287 23.499 33.8391C27.3105 30.0404 32.618 25.5854 33.1927 25.7068C34.3078 25.9419 43.2302 34.1156 46.5687 37.9647C51.8515 44.0511 54.2783 49.0343 53.045 51.2547C52.1086 52.9429 46.2896 56.2444 42.0147 57.5115C38.1385 58.59 34.0818 58.9786 30.0536 58.6572ZM8.38772 46.265C5.59588 42.2028 3.93755 37.5457 3.56559 32.7231C3.35483 30.4557 3.52512 28.1712 4.07022 25.9535C5.05087 20.8423 7.53968 16.0926 11.2532 12.2451C12.7355 10.7958 12.8688 10.7596 14.6756 11.3331C16.8701 12.0268 19.2131 13.5471 22.8486 16.6354L24.9688 18.436L23.8111 19.7729C18.4348 25.9755 12.7602 34.7691 10.6221 40.2084C9.46022 43.1663 8.99134 46.1345 9.49047 47.3706C9.82872 48.2051 9.51797 47.8938 8.38772 46.265ZM56.7767 46.9405C56.9502 44.9512 56.6496 42.9506 55.8967 41.0841C54.1477 36.075 48.304 26.7544 42.9387 20.4174L41.2502 18.4231L43.0776 16.8473C44.8674 15.2281 46.8198 13.7755 48.9076 12.5098C50.2094 11.7193 51.6707 11.1895 53.2003 10.9534C53.7352 10.9534 55.6148 12.7876 57.1328 14.7871C59.5474 18.0218 61.2345 21.6851 62.0911 25.5531C62.6643 29.0156 62.6948 32.5383 62.1818 36.0091C61.6898 38.2666 60.9469 40.4693 59.9653 42.5811C59.0979 44.2798 58.0853 45.9096 56.9376 47.4546C56.5663 47.8976 56.5677 47.8964 56.7767 46.9405ZM30.5417 10.0066C27.871 8.75931 25.0484 7.8224 22.1363 7.2166C21.2087 7.08552 20.2701 7.03579 19.3327 7.06806C17.592 7.15072 17.669 7.06547 20.463 5.82547C22.6527 4.8381 24.9663 4.11421 27.349 3.67097C31.1319 3.0867 34.9907 3.08234 38.7752 3.65806C41.9016 4.27241 44.9121 5.32436 47.7058 6.77872L48.3246 7.13781L46.9028 7.06935C44.0772 6.93631 39.9591 8.00839 35.5371 10.0298C34.7013 10.4392 33.8399 10.8006 32.9576 11.1123C32.8737 11.0981 31.7861 10.6008 30.5417 10.0066Z" stroke="#00E600" stroke-width="3" stroke-linecap="round" stroke-linejoin="round"/>
</g>
<path d="M30.0536 58.6572C25.3719 58.204 20.8737 56.7048 16.9347 54.2849C13.6168 52.2519 12.8675 51.4161 12.8675 49.7486C12.8675 46.398 16.7903 40.5287 23.499 33.8391C27.3105 30.0404 32.618 25.5854 33.1927 25.7068C34.3078 25.9419 43.2302 34.1156 46.5687 37.9647C51.8515 44.0511 54.2783 49.0343 53.045 51.2547C52.1086 52.9429 46.2896 56.2444 42.0147 57.5115C38.1385 58.59 34.0818 58.9786 30.0536 58.6572ZM8.38772 46.265C5.59588 42.2028 3.93755 37.5457 3.56559 32.7231C3.35483 30.4557 3.52512 28.1712 4.07022 25.9535C5.05087 20.8423 7.53968 16.0926 11.2532 12.2451C12.7355 10.7958 12.8688 10.7596 14.6756 11.3331C16.8701 12.0268 19.2131 13.5471 22.8486 16.6354L24.9688 18.436L23.8111 19.7729C18.4348 25.9755 12.7602 34.7691 10.6221 40.2084C9.46022 43.1663 8.99134 46.1345 9.49047 47.3706C9.82872 48.2051 9.51797 47.8938 8.38772 46.265ZM56.7767 46.9405C56.9502 44.9512 56.6496 42.9506 55.8967 41.0841C54.1477 36.075 48.304 26.7544 42.9387 20.4174L41.2502 18.4231L43.0776 16.8473C44.8674 15.2281 46.8198 13.7755 48.9076 12.5098C50.2094 11.7193 51.6707 11.1895 53.2003 10.9534C53.7352 10.9534 55.6148 12.7876 57.1328 14.7871C59.5474 18.0218 61.2345 21.6851 62.0911 25.5531C62.6643 29.0156 62.6948 32.5383 62.1818 36.0091C61.6898 38.2666 60.9469 40.4693 59.9653 42.5811C59.0979 44.2798 58.0853 45.9096 56.9376 47.4546C56.5663 47.8976 56.5677 47.8964 56.7767 46.9405ZM30.5417 10.0066C27.871 8.75931 25.0484 7.8224 22.1363 7.2166C21.2087 7.08552 20.2701 7.03579 19.3327 7.06806C17.592 7.15072 17.669 7.06547 20.463 5.82547C22.6527 4.8381 24.9663 4.11421 27.349 3.67097C31.1319 3.0867 34.9907 3.08234 38.7752 3.65806C41.9016 4.27241 44.9121 5.32436 47.7058 6.77872L48.3246 7.13781L46.9028 7.06935C44.0772 6.93631 39.9591 8.00839 35.5371 10.0298C34.7013 10.4392 33.8399 10.8006 32.9576 11.1123C32.8737 11.0981 31.7861 10.6008 30.5417 10.0066Z" stroke="#32E032" stroke-linecap="round" stroke-linejoin="round"/>
<path d="M30.0536 58.6572C25.3719 58.204 20.8737 56.7048 16.9347 54.2849C13.6168 52.2519 12.8675 51.4161 12.8675 49.7486C12.8675 46.398 16.7903 40.5287 23.499 33.8391C27.3105 30.0404 32.618 25.5854 33.1927 25.7068C34.3078 25.9419 43.2302 34.1156 46.5687 37.9647C51.8515 44.0511 54.2783 49.0343 53.045 51.2547C52.1086 52.9429 46.2896 56.2444 42.0147 57.5115C38.1385 58.59 34.0818 58.9786 30.0536 58.6572ZM8.38772 46.265C5.59588 42.2028 3.93755 37.5457 3.56559 32.7231C3.35483 30.4557 3.52512 28.1712 4.07022 25.9535C5.05087 20.8423 7.53968 16.0926 11.2532 12.2451C12.7355 10.7958 12.8688 10.7596 14.6756 11.3331C16.8701 12.0268 19.2131 13.5471 22.8486 16.6354L24.9688 18.436L23.8111 19.7729C18.4348 25.9755 12.7602 34.7691 10.6221 40.2084C9.46022 43.1663 8.99134 46.1345 9.49047 47.3706C9.82872 48.2051 9.51797 47.8938 8.38772 46.265ZM56.7767 46.9405C56.9502 44.9512 56.6496 42.9506 55.8967 41.0841C54.1477 36.075 48.304 26.7544 42.9387 20.4174L41.2502 18.4231L43.0776 16.8473C44.8674 15.2281 46.8198 13.7755 48.9076 12.5098C50.2094 11.7193 51.6707 11.1895 53.2003 10.9534C53.7352 10.9534 55.6148 12.7876 57.1328 14.7871C59.5474 18.0218 61.2345 21.6851 62.0911 25.5531C62.6643 29.0156 62.6948 32.5383 62.1818 36.0091C61.6898 38.2666 60.9469 40.4693 59.9653 42.5811C59.0979 44.2798 58.0853 45.9096 56.9376 47.4546C56.5663 47.8976 56.5677 47.8964 56.7767 46.9405ZM30.5417 10.0066C27.871 8.75931 25.0484 7.8224 22.1363 7.2166C21.2087 7.08552 20.2701 7.03579 19.3327 7.06806C17.592 7.15072 17.669 7.06547 20.463 5.82547C22.6527 4.8381 24.9663 4.11421 27.349 3.67097C31.1319 3.0867 34.9907 3.08234 38.7752 3.65806C41.9016 4.27241 44.9121 5.32436 47.7058 6.77872L48.3246 7.13781L46.9028 7.06935C44.0772 6.93631 39.9591 8.00839 35.5371 10.0298C34.7013 10.4392 33.8399 10.8006 32.9576 11.1123C32.8737 11.0981 31.7861 10.6008 30.5417 10.0066Z" stroke="#9BCF9B" stroke-width="0.5" stroke-linecap="round" stroke-linejoin="round"/>
<path d="M30.0536 58.6572C25.3719 58.204 20.8737 56.7048 16.9347 54.2849C13.6168 52.2519 12.8675 51.4161 12.8675 49.7486C12.8675 46.398 16.7903 40.5287 23.499 33.8391C27.3105 30.0404 32.618 25.5854 33.1927 25.7068C34.3078 25.9419 43.2302 34.1156 46.5687 37.9647C51.8515 44.0511 54.2783 49.0343 53.045 51.2547C52.1086 52.9429 46.2896 56.2444 42.0147 57.5115C38.1385 58.59 34.0818 58.9786 30.0536 58.6572ZM8.38772 46.265C5.59588 42.2028 3.93755 37.5457 3.56559 32.7231C3.35483 30.4557 3.52512 28.1712 4.07022 25.9535C5.05087 20.8423 7.53968 16.0926 11.2532 12.2451C12.7355 10.7958 12.8688 10.7596 14.6756 11.3331C16.8701 12.0268 19.2131 13.5471 22.8486 16.6354L24.9688 18.436L23.8111 19.7729C18.4348 25.9755 12.7602 34.7691 10.6221 40.2084C9.46022 43.1663 8.99134 46.1345 9.49047 47.3706C9.82872 48.2051 9.51797 47.8938 8.38772 46.265ZM56.7767 46.9405C56.9502 44.9512 56.6496 42.9506 55.8967 41.0841C54.1477 36.075 48.304 26.7544 42.9387 20.4174L41.2502 18.4231L43.0776 16.8473C44.8674 15.2281 46.8198 13.7755 48.9076 12.5098C50.2094 11.7193 51.6707 11.1895 53.2003 10.9534C53.7352 10.9534 55.6148 12.7876 57.1328 14.7871C59.5474 18.0218 61.2345 21.6851 62.0911 25.5531C62.6643 29.0156 62.6948 32.5383 62.1818 36.0091C61.6898 38.2666 60.9469 40.4693 59.9653 42.5811C59.0979 44.2798 58.0853 45.9096 56.9376 47.4546C56.5663 47.8976 56.5677 47.8964 56.7767 46.9405ZM30.5417 10.0066C27.871 8.75931 25.0484 7.8224 22.1363 7.2166C21.2087 7.08552 20.2701 7.03579 19.3327 7.06806C17.592 7.15072 17.669 7.06547 20.463 5.82547C22.6527 4.8381 24.9663 4.11421 27.349 3.67097C31.1319 3.0867 34.9907 3.08234 38.7752 3.65806C41.9016 4.27241 44.9121 5.32436 47.7058 6.77872L48.3246 7.13781L46.9028 7.06935C44.0772 6.93631 39.9591 8.00839 35.5371 10.0298C34.7013 10.4392 33.8399 10.8006 32.9576 11.1123C32.8737 11.0981 31.7861 10.6008 30.5417 10.0066Z" stroke="white" stroke-width="0.2" stroke-linecap="round" stroke-linejoin="round"/>
<defs>
<filter id="filter0_f_119_1034" x="-1.3" y="-1.3" width="68.6" height="64.6" filterUnits="userSpaceOnUse" color-interpolation-filters="sRGB">
<feFlood flood-opacity="0" result="BackgroundImageFix"/>
<feBlend mode="normal" in="SourceGraphic" in2="BackgroundImageFix" result="shape"/>
<feGaussianBlur stdDeviation="0.65" result="effect1_foregroundBlur_119_1034"/>
</filter>
</defs>
</svg>
